<?xml version="1.0" encoding="utf-8"?>
<!-- Generator: Adobe Illustrator 23.0.1, SVG Export Plug-In . SVG Version: 6.00 Build 0)  -->
<svg version="1.1" id="Social_Icons" xmlns="http://www.w3.org/2000/svg" xmlns:xlink="http://www.w3.org/1999/xlink" x="0px"
	 y="0px" viewBox="0 0 128 128" style="enable-background:new 0 0 128 128;" xml:space="preserve">
<style type="text/css">
	.st0{fill:none;}
	.st1{fill-rule:evenodd;clip-rule:evenodd;fill:#10BC4C;}
	.st2{fill-rule:evenodd;clip-rule:evenodd;fill:#CEF4D9;}
	.st3{opacity:0.32;}
	.st4{fill-rule:evenodd;clip-rule:evenodd;fill:none;}
</style>
<g id="_x34__stroke">
	<g id="Spotify_1_">
		<rect x="8" y="8" class="st0" width="112" height="112"/>
		<path class="st1" d="M64,120c30.8,0,56-25.2,56-56S94.8,8,64,8S8,33.2,8,64S32.9,120,64,120"/>
	</g>
</g>
<g>
	<g>
		<rect x="30.5" y="60.7" class="st2" width="6.5" height="6.5"/>
		<rect x="41.4" y="60.7" class="st2" width="56" height="6.5"/>
	</g>
	<g class="st3">
		<g>
			<g>
				<rect x="30.5" y="35.3" class="st2" width="6.5" height="6.5"/>
				<rect x="41.4" y="35.3" class="st2" width="56" height="6.5"/>
			</g>
			<g>
				<rect x="30.5" y="48" class="st2" width="6.5" height="6.5"/>
				<rect x="41.4" y="48" class="st2" width="56" height="6.5"/>
			</g>
			<g>
				<rect x="30.5" y="73.5" class="st2" width="6.5" height="6.5"/>
				<rect x="41.4" y="73.5" class="st2" width="56" height="6.5"/>
			</g>
			<g>
				<rect x="30.5" y="86.2" class="st2" width="6.5" height="6.5"/>
				<rect x="41.4" y="86.2" class="st2" width="56" height="6.5"/>
			</g>
		</g>
	</g>
</g>
<rect class="st4" width="128" height="128"/>
</svg>
